# AST/ASF file generated using VICON BodyLanguage
# -----------------------------------------------
:version 1.10
:name VICON
:units
  mass 1.0
  length 0.45
  angle deg
:documentation
   .ast/.asf automatically generated from VICON data using
   VICON BodyBuilder and BodyLanguage model FoxedUp or BRILLIANT.MOD
:root
   order TX TY TZ RX RY RZ
   axis XYZ
   position 0 0 0  
   orientation 0 0 0 
:bonedata
  begin
     id 1 
     name lhipjoint
     direction 0.610259 -0.730986 0.305356 
     length 2.50941 
     axis 0 0 0  XYZ
  end
  begin
     id 2 
     name lfemur
     direction 0.34202 -0.939693 0  
     length 7.48822  
     axis 0 0 20  XYZ
    dof rx ry rz
    limits (-160.0 20.0)
           (-70.0 70.0)
           (-60.0 70.0)
  end
  begin
     id 3 
     name ltibia
     direction 0.34202 -0.939693 0   
     length 7.60141   
     axis 0 0 20   XYZ
    dof rx
    limits (-10.0 170.0)
  end
  begin
     id 4 
     name lfoot
     direction 0.0673488 -0.185039 0.980421   
     length 2.04049   
     axis -90 7.62852e-016 20   XYZ
    dof rx rz
    limits (-45.0 90.0)
           (-70.0 20.0)
  end
  begin
     id 5 
     name ltoes
     direction 1.5356e-011 -4.21729e-011 1   
     length 1.02897   
     axis -90 7.62852e-016 20   XYZ
    dof rx
    limits (-90.0 20.0)
  end
  begin
     id 6 
     name rhipjoint
     direction -0.57612 -0.754205 0.315056   
     length 2.43216  
     axis 0 0 0  XYZ 
  end
  begin
     id 7 
     name rfemur
     direction -0.34202 -0.939693 0   
     length 7.42799   
     axis 0 0 -20   XYZ
    dof rx ry rz
    limits (-160.0 20.0)
           (-70.0 70.0)
           (-70.0 60.0)
  end
  begin
     id 8 
     name rtibia
     direction -0.34202 -0.939693 0   
     length 7.69484   
     axis 0 0 -20   XYZ
    dof rx
    limits (-10.0 170.0)
 end
 begin
     id 9 
     name rfoot
     direction -0.111837 -0.30727 0.945028   
     length 2.15769  
     axis -90 -7.62852e-016 -20   XYZ
    dof rx rz
    limits (-45.0 90.0)
           (-20.0 70.0)
  end
  begin
     id 10 
     name rtoes
     direction -1.53539e-011 -4.21878e-011 1   
     length 1.07391   
     axis -90 -7.62852e-016 -20   XYZ
    dof rx
    limits (-90.0 20.0)
  end
  begin
     id 11 
     name lowerback
     direction 0.00552624 0.990109 -0.140195   
     length 2.12403   
     axis 0 0 0   XYZ
    dof rx ry rz
    limits (-20.0 45.0)
           (-30.0 30.0)
           (-30.0 30.0)
  end
  begin
     id 12 
     name upperback
     direction 0.00361898 0.999976 -0.00584723   
     length 2.13232   
     axis 0 0 0   XYZ
    dof rx ry rz
    limits (-20.0 45.0)
           (-30.0 30.0)
           (-30.0 30.0)
  end
  begin
     id 13 
     name thorax
     direction -0.000331275 0.998253 0.0590847   
     length 2.17688   
     axis 0 0 0   XYZ
    dof rx ry rz
    limits (-20.0 45.0)
           (-30.0 30.0)
           (-30.0 30.0)
  end
  begin
     id 14 
     name lowerneck
     direction -0.0561561 0.979832 0.19177   
     length 1.64159   
     axis 0 0 0   XYZ
    dof rx ry rz
    limits (-20.0 45.0)
           (-30.0 30.0)
           (-30.0 30.0)
  end
  begin
     id 15 
     name upperneck
     direction 0.0827153 0.979385 -0.184293   
     length 1.68939   
     axis 0 0 0   XYZ
    dof rx ry rz
    limits (-20.0 45.0)
           (-30.0 30.0)
           (-30.0 30.0)
  end
  begin
     id 16
     name head
     direction 0.0278583 0.995936 -0.0856488  
     length 1.70207  
     axis 0 0 0   XYZ
    dof rx ry rz
    limits (-20.0 45.0)
           (-30.0 30.0)
           (-30.0 30.0)
  end
  begin
     id 17 
     name lclavicle
     direction 0.950993 0.301131 -0.0702275  
     length 3.41652  
     axis 0 0 0   XYZ
    dof ry rz
    limits (-20.0 10.0)
           (0.0 20.0)
  end
  begin
     id 18 
     name lhumerus
     direction 1 -4.48981e-011 -3.9662e-029   
     length 5.32955   
     axis 180 -30 -90   XYZ
    dof rx ry rz
    limits (-60.0 90.0)
           (-90.0 90.0)
           (-90.0 90.0)
  end
  begin
     id 19
     name lradius
     direction 1 -4.48925e-011 -9.0549e-027   
     length 3.69232   
     axis 180 -30 -90   XYZ
    dof rx
    limits (-10.0 170.0)
  end
  begin
     id 20
     name lwrist
     direction 1 -4.49007e-011 -1.49005e-026   
     length 1.84616   
     axis 9.0955e-015 90 90   XYZ
    dof ry
    limits (-180.0 0.0)
 end
  begin
     id 21 
     name lhand
     direction 1 -4.49016e-011 -2.98023e-026   
     length 0.536598   
     axis 1.90115e-014 90 90   XYZ
    dof rx rz
    limits (-90.0 90.0)
           (-45.0 45.0)
  end
  begin
     id 22 
     name lfingers
     direction 1 -4.48924e-011 -5.9578e-026   
     length 0.432619   
     axis 3.80223e-014 90 90   XYZ
    dof rx
    limits (0.0 90.0)
  end
  begin
     id 23
     name lthumb
     direction 0.707107 -6.34947e-011 0.707107   
     length 0.621157   
     axis -90 45 -3.84942e-014   XYZ
    dof rx rz
    limits (-45.0 45.0)
           (-45.0 45.0)
  end
  begin
     id 24 
     name rclavicle
     direction -0.955495 0.276497 -0.102848   
     length 3.36357  
     axis 0 0 0   XYZ 
    dof ry rz
    limits (-10.0 20.0)
           (-20.0 0.0)
  end
  begin
     id 25 
     name rhumerus
     direction -1 -4.48961e-011 3.30983e-027  
     length 5.23431   
     axis 180 30 90   XYZ
    dof rx ry rz
    limits (-90.0 60.0)
           (-90.0 90.0)
           (-90.0 90.0)
  end
  begin
     id 26 
     name rradius
     direction -1 -4.48965e-011 -6.63263e-027   
     length 3.55301   
     axis 180 30 90   XYZ
    dof rx
    limits (-10.0 170.0)
  end
  begin
     id 27 
     name rwrist
     direction -1 -4.48942e-011 -1.48958e-026   
     length 1.77651   
     axis 9.0955e-015 -90 -90   XYZ
    dof ry
    limits (-180.0 0.0)
  end
  begin
     id 28
     name rhand
     direction -1 -4.48977e-011 -2.97966e-026   
     length 0.772522   
     axis 1.90115e-014 -90 -90   XYZ
    dof rx rz
    limits (-90.0 90.0)
           (-45.0 45.0)
  end
  begin
     id 29
     name rfingers
     direction -1 -4.49135e-011 -5.96389e-026   
     length 0.622827   
     axis 3.80223e-014 -90 -90   XYZ
    dof rx
    limits (0.0 90.0)
  end
  begin
     id 30
     name rthumb
     direction -0.707107 -6.34969e-011 0.707107   
     length 0.894259   
     axis -90 -45 3.84942e-014   XYZ
    dof rx rz
    limits (-45.0 45.0)
           (-45.0 45.0)
  end
:hierarchy
  begin
    root lhipjoint rhipjoint lowerback
    lhipjoint lfemur
    lfemur ltibia
    ltibia lfoot
    lfoot ltoes
    rhipjoint rfemur
    rfemur rtibia
    rtibia rfoot
    rfoot rtoes
    lowerback upperback
    upperback thorax
    thorax lowerneck lclavicle rclavicle
    lowerneck upperneck
    upperneck head
    lclavicle lhumerus
    lhumerus lradius
    lradius lwrist
    lwrist lhand lthumb
    lhand lfingers
    rclavicle rhumerus
    rhumerus rradius
    rradius rwrist
    rwrist rhand rthumb
    rhand rfingers
  end

#!OML:ASF F:\VICON\USERDATA\INSTALL\rory3\rory3.ASF
:FULLY-SPECIFIED
:DEGREES
106
root 1.92586 18.1386 0.752322 9.04197 74.6629 12.9501
lowerback 10.572 1.53846 -2.369
upperback 0.628725 1.77754 -0.19224
thorax -5.33962 0.940765 0.864914
lowerneck -22.5758 -5.02895 -12.2316
upperneck 30.2485 -4.62031 7.09235
head 14.76 -2.26924 4.1725
rclavicle -1.10574e-014 6.36111e-015
rhumerus -30.4553 -8.14298 -82.8317
rradius 33.9996
rwrist 5.50507
rhand -13.9354 9.00047
rfingers 7.12502
rthumb 12.1914 -20.6243
lclavicle -1.10574e-014 6.36111e-015
lhumerus -33.7209 7.08478 82.4372
lradius 31.9715
lwrist -7.32188
lhand -16.557 24.7482
lfingers 7.12502
lthumb 9.66281 54.5065
rfemur -8.82575 -0.679213 15.3587
rtibia 43.9481
rfoot -15.6341 -3.99185
rtoes -4.36853
lfemur 5.62787 1.10361 -27.7713
ltibia 8.74653e-015
lfoot 1.42403 -8.05201
ltoes 4.97825
107
root 1.94748 18.1305 0.770765 9.48451 75.2314 13.2574
lowerback 10.4609 1.53921 -2.36227
upperback 0.591912 1.77781 -0.262905
thorax -5.31358 0.939878 0.789526
lowerneck -22.4675 -5.02187 -11.8886
upperneck 30.0681 -4.70147 6.93
head 14.6475 -2.28492 4.02157
rclavicle -3.88376e-014 1.78906e-015
rhumerus -30.4801 -7.88325 -83.1169
rradius 34.0945
rwrist 5.32761
rhand -13.9873 9.05208
rfingers 7.12502
rthumb 12.1413 -20.5756
lclavicle -3.88376e-014 1.78906e-015
lhumerus -33.6704 6.5203 82.5056
lradius 31.9871
lwrist -6.54062
lhand -16.7087 25.125
lfingers 7.12502
lthumb 9.51639 54.8901
rfemur -8.92919 -0.229913 15.4256
rtibia 42.9879
rfoot -16.1211 -3.89539
rtoes -4.33537
lfemur 5.56151 1.02451 -27.7063
ltibia 1.47101e-014
lfoot 1.33733 -8.68241
ltoes 2.71784
108
root 1.97048 18.124 0.790867 9.48869 75.8718 13.1293
lowerback 10.3506 1.4937 -2.25533
upperback 0.548361 1.73307 -0.232692
thorax -5.29374 0.915443 0.769816
lowerneck -22.3922 -5.05821 -11.8165
upperneck 29.988 -4.77087 6.87385
head 14.5996 -2.3134 3.96899
rclavicle 2.95692e-014 -1.25234e-014
rhumerus -30.5531 -7.8538 -83.2606
rradius 34.2054
rwrist 5.41107
rhand -13.8825 9.34921
rfingers 7.12502
rthumb 12.2424 -20.2725
lclavicle 2.95692e-014 -1.25234e-014
lhumerus -33.6513 6.30981 82.5014
lradius 31.9161
lwrist -6.45703
lhand -16.5824 25.1233
lfingers 7.12502
lthumb 9.63823 54.8828
rfemur -8.9484 0.40012 15.6774
rtibia 41.9901
rfoot -16.562 -3.87405
rtoes -5.11059
lfemur 5.54019 0.894774 -27.4799
ltibia -2.94201e-014
lfoot 1.31465 -9.18617
ltoes 2.33026
109
root 1.99382 18.1217 0.813765 9.10754 76.4661 12.7355
lowerback 10.4144 1.44515 -2.15477
upperback 0.482978 1.6821 -0.134378
thorax -5.39659 0.889779 0.82103
lowerneck -22.2738 -5.09837 -11.9594
upperneck 29.9866 -4.8129 6.95548
head 14.5866 -2.33676 4.02043
rclavicle 6.08778e-014 -7.35503e-015
rhumerus -30.6878 -7.66368 -83.3525
rradius 34.2778
rwrist 5.36533
rhand -13.8166 9.74424
rfingers 7.12502
rthumb 12.3059 -19.8736
lclavicle 6.08778e-014 -7.35503e-015
lhumerus -33.7597 6.31957 82.5239
lradius 31.8418
lwrist -6.43814
lhand -16.5358 25.0615
lfingers 7.12502
lthumb 9.68323 54.819
rfemur -8.80945 1.37284 16.0139
rtibia 40.9718
rfoot -17.1285 -3.79794
rtoes -5.7243
lfemur 4.12858 0.832238 -27.1473
ltibia 3.02221
lfoot -0.21827 -9.48159
ltoes 3.02278
110
root 2.01572 18.1152 0.835094 9.52307 76.9245 13.1885
lowerback 10.5066 1.42117 -2.19836
upperback 0.444952 1.64175 -0.139482
thorax -5.48814 0.871785 0.843556
lowerneck -22.1924 -5.12987 -12.1737
upperneck 29.9587 -4.84574 7.13867
head 14.5742 -2.35005 4.12773
rclavicle -5.15349e-014 3.97569e-016
rhumerus -30.7885 -7.45708 -83.5116
rradius 34.3632
rwrist 5.47755
rhand -13.9632 9.7666
rfingers 7.12502
rthumb 12.1646 -19.8597
lclavicle -5.15349e-014 3.97569e-016
lhumerus -33.8124 6.39027 82.4724
lradius 31.7442
lwrist -6.63167
lhand -17.3956 25.6157
lfingers 7.12502
lthumb 8.8536 55.4099
rfemur -8.68092 2.40159 16.0596
rtibia 39.9366
rfoot -17.7772 -3.51389
rtoes -5.03088
lfemur 3.14401 0.8787 -27.0899
ltibia 5.24349
lfoot -1.45452 -9.8523
ltoes 3.12367
111
root 2.03773 18.104 0.854988 9.92823 77.3291 13.5913
lowerback 10.5156 1.39167 -2.2027
upperback 0.427217 1.59946 -0.177123
thorax -5.50946 0.85091 0.812639
lowerneck -22.1678 -5.12333 -12.1445
upperneck 29.9319 -4.82904 7.08198
head 14.5521 -2.347 4.10101
rclavicle -4.52235e-015 -1.19271e-015
rhumerus -30.8805 -7.34025 -83.7438
rradius 34.5128
rwrist 5.65269
rhand -14.0506 9.52973
rfingers 7.12502
rthumb 12.0803 -20.1016
lclavicle -4.52235e-015 -1.19271e-015
lhumerus -33.8085 7.23084 81.8142
lradius 31.4575
lwrist -9.05052
lhand -16.374 24.8257
lfingers 7.12502
lthumb 9.83932 54.5758
rfemur -8.58351 3.17569 16.087
rtibia 38.8978
rfoot -18.2832 -3.18513
rtoes -5.22916
lfemur 2.4096 0.976912 -27.0335
ltibia 6.83036
lfoot -2.37498 -10.253
ltoes 2.73627
112
root 2.06132 18.0921 0.873401 10.1443 77.753 13.7939
lowerback 10.4642 1.36876 -2.19546
upperback 0.428224 1.57116 -0.179322
thorax -5.47834 0.836571 0.811772
lowerneck -22.1364 -5.13057 -12.0026
upperneck 29.9066 -4.85589 6.96151
head 14.5284 -2.35828 4.01971
rclavicle 2.03568e-014 5.1684e-015
rhumerus -30.9508 -7.39225 -83.9029
rradius 34.6193
rwrist 5.78549
rhand -13.9186 9.49076
rfingers 7.12502
rthumb 12.2076 -20.133
lclavicle 2.03568e-014 5.1684e-015
lhumerus -33.8252 7.58065 81.5515
lradius 31.3967
lwrist -9.96039
lhand -16.2331 25.069
lfingers 7.12502
lthumb 9.9753 54.8126
rfemur -8.51381 3.62926 16.1709
rtibia 37.8872
rfoot -18.6086 -3.04076
rtoes -7.21721
lfemur 1.81504 1.06436 -26.9125
ltibia 8.08632
lfoot -3.01441 -10.6545
ltoes 3.13203
113
root 2.08248 18.0788 0.888892 10.2722 78.1853 13.9345
lowerback 10.4658 1.37461 -2.10218
upperback 0.438104 1.58862 -0.213475
thorax -5.46581 0.842381 0.721071
lowerneck -22.0431 -5.17848 -11.9678
upperneck 29.8276 -4.98297 7.05877
head 14.4903 -2.39449 4.02763
rclavicle -9.07576e-015 5.96354e-015
rhumerus -30.9689 -7.47105 -84.0312
rradius 34.6296
rwrist 5.7943
rhand -13.799 9.66896
rfingers 7.12502
rthumb 12.323 -19.9479
lclavicle -9.07576e-015 5.96354e-015
lhumerus -33.818 7.37991 81.5653
lradius 31.3913
lwrist -9.80873
lhand -16.4707 25.8041
lfingers 7.12502
lthumb 9.746 55.5586
rfemur -8.43877 4.05014 16.2578
rtibia 36.8884
rfoot -18.9615 -2.93898
rtoes -8.65511
lfemur 1.32758 1.15035 -26.8041
ltibia 9.21607
lfoot -3.59503 -11.0273
ltoes 3.81966
114
root 2.10204 18.0702 0.905803 10.3415 78.5497 14.0321
lowerback 10.5479 1.36566 -2.01382
upperback 0.420965 1.58386 -0.236077
thorax -5.52663 0.83803 0.646326
lowerneck -21.9772 -5.19926 -12.0795
upperneck 29.7746 -5.02607 7.20421
head 14.4665 -2.40533 4.09812
rclavicle -4.60311e-015 -7.95139e-016
rhumerus -31.0051 -7.40735 -84.185
rradius 34.6473
rwrist 5.81719
rhand -13.9027 9.69869
rfingers 7.12502
rthumb 12.2229 -19.9242
lclavicle -4.60311e-015 -7.95139e-016
lhumerus -33.848 7.24885 81.5567
lradius 31.2587
lwrist -9.50587
lhand -17.1573 26.2042
lfingers 7.12502
lthumb 9.08357 55.9886
rfemur -8.34156 4.49801 16.3079
rtibia 35.9261
rfoot -19.42 -2.5192
rtoes -9.04943
lfemur 0.969483 1.30652 -26.7294
ltibia 10.1731
lfoot -4.14687 -11.402
ltoes 3.70224
115
root 2.12216 18.0645 0.924443 10.352 78.9001 14.08
lowerback 10.5747 1.33193 -1.94797
upperback 0.459538 1.5498 -0.192279
thorax -5.49958 0.819976 0.660239
lowerneck -22.0054 -5.2037 -12.1916
upperneck 29.7339 -4.9593 7.13268
head 14.4487 -2.3993 4.09808
rclavicle -1.42876e-015 5.36719e-015
rhumerus -30.9571 -7.27755 -84.2579
rradius 34.6397
rwrist 5.92702
rhand -14.0056 9.74702
rfingers 7.12502
rthumb 12.1237 -19.8817
lclavicle -1.42876e-015 5.36719e-015
lhumerus -33.8227 7.45061 81.5171
lradius 31.1258
lwrist -9.46662
lhand -17.4576 25.9956
lfingers 7.12502
lthumb 8.79375 55.7924
rfemur -8.22962 5.03846 16.3944
rtibia 35.0142
rfoot -19.7821 -2.02598
rtoes -9.70683
lfemur 0.732421 0.939251 -26.6302
ltibia 10.9203
lfoot -4.51693 -11.3113
ltoes 3.41676
